<mxfile host="app.diagrams.net" modified="2021-02-04T06:42:50.384Z" agent="5.0 (Windows NT 10.0; Win64; x64) AppleWebKit/537.36 (KHTML, like Gecko) Chrome/88.0.4324.104 Safari/537.36" etag="oyC3XXsXbKQxC0tPy0pm" version="14.2.9" type="github">
  <diagram id="2zZohL34fuAizkkNtW7m" name="Page-1">
    <mxGraphModel dx="806" dy="490" grid="1" gridSize="10" guides="1" tooltips="1" connect="1" arrows="1" fold="1" page="1" pageScale="1" pageWidth="827" pageHeight="1169" math="0" shadow="0">
      <root>
        <mxCell id="0" />
        <mxCell id="1" parent="0" />
        <mxCell id="xh9UEQg4_IJuGhr8X1SV-8" style="edgeStyle=orthogonalEdgeStyle;rounded=0;orthogonalLoop=1;jettySize=auto;html=1;exitX=1;exitY=0.5;exitDx=0;exitDy=0;entryX=0;entryY=0.5;entryDx=0;entryDy=0;" edge="1" parent="1" source="xh9UEQg4_IJuGhr8X1SV-1" target="xh9UEQg4_IJuGhr8X1SV-2">
          <mxGeometry relative="1" as="geometry" />
        </mxCell>
        <mxCell id="xh9UEQg4_IJuGhr8X1SV-1" value="明天下午去吃饭" style="rounded=1;whiteSpace=wrap;html=1;" vertex="1" parent="1">
          <mxGeometry x="80" y="550" width="130" height="45" as="geometry" />
        </mxCell>
        <mxCell id="xh9UEQg4_IJuGhr8X1SV-13" style="edgeStyle=orthogonalEdgeStyle;rounded=0;orthogonalLoop=1;jettySize=auto;html=1;exitX=1;exitY=0.5;exitDx=0;exitDy=0;entryX=0;entryY=0.5;entryDx=0;entryDy=0;" edge="1" parent="1" source="xh9UEQg4_IJuGhr8X1SV-2" target="xh9UEQg4_IJuGhr8X1SV-5">
          <mxGeometry relative="1" as="geometry" />
        </mxCell>
        <mxCell id="xh9UEQg4_IJuGhr8X1SV-2" value="加密" style="ellipse;whiteSpace=wrap;html=1;" vertex="1" parent="1">
          <mxGeometry x="240" y="547.5" width="50" height="50" as="geometry" />
        </mxCell>
        <mxCell id="xh9UEQg4_IJuGhr8X1SV-15" style="edgeStyle=orthogonalEdgeStyle;rounded=0;orthogonalLoop=1;jettySize=auto;html=1;exitX=1;exitY=0.5;exitDx=0;exitDy=0;entryX=0;entryY=0.5;entryDx=0;entryDy=0;" edge="1" parent="1" source="xh9UEQg4_IJuGhr8X1SV-3" target="xh9UEQg4_IJuGhr8X1SV-4">
          <mxGeometry relative="1" as="geometry" />
        </mxCell>
        <mxCell id="xh9UEQg4_IJuGhr8X1SV-3" value="解密" style="ellipse;whiteSpace=wrap;html=1;" vertex="1" parent="1">
          <mxGeometry x="440" y="547.5" width="50" height="50" as="geometry" />
        </mxCell>
        <mxCell id="xh9UEQg4_IJuGhr8X1SV-4" value="明天下午去吃饭" style="rounded=1;whiteSpace=wrap;html=1;" vertex="1" parent="1">
          <mxGeometry x="520" y="550" width="130" height="45" as="geometry" />
        </mxCell>
        <mxCell id="xh9UEQg4_IJuGhr8X1SV-14" style="edgeStyle=orthogonalEdgeStyle;rounded=0;orthogonalLoop=1;jettySize=auto;html=1;exitX=1;exitY=0.5;exitDx=0;exitDy=0;entryX=0;entryY=0.5;entryDx=0;entryDy=0;" edge="1" parent="1" source="xh9UEQg4_IJuGhr8X1SV-5" target="xh9UEQg4_IJuGhr8X1SV-3">
          <mxGeometry relative="1" as="geometry" />
        </mxCell>
        <mxCell id="xh9UEQg4_IJuGhr8X1SV-5" value="ABCD" style="rounded=0;whiteSpace=wrap;html=1;" vertex="1" parent="1">
          <mxGeometry x="310" y="551.25" width="100" height="42.5" as="geometry" />
        </mxCell>
        <mxCell id="xh9UEQg4_IJuGhr8X1SV-16" value="明文" style="text;html=1;strokeColor=none;fillColor=none;align=center;verticalAlign=middle;whiteSpace=wrap;rounded=0;" vertex="1" parent="1">
          <mxGeometry x="120" y="520" width="40" height="20" as="geometry" />
        </mxCell>
        <mxCell id="xh9UEQg4_IJuGhr8X1SV-17" value="密文" style="text;html=1;strokeColor=none;fillColor=none;align=center;verticalAlign=middle;whiteSpace=wrap;rounded=0;" vertex="1" parent="1">
          <mxGeometry x="340" y="520" width="40" height="20" as="geometry" />
        </mxCell>
        <mxCell id="xh9UEQg4_IJuGhr8X1SV-20" style="edgeStyle=orthogonalEdgeStyle;rounded=0;orthogonalLoop=1;jettySize=auto;html=1;exitX=0.5;exitY=1;exitDx=0;exitDy=0;entryX=0.5;entryY=0;entryDx=0;entryDy=0;" edge="1" parent="1" source="xh9UEQg4_IJuGhr8X1SV-18" target="xh9UEQg4_IJuGhr8X1SV-2">
          <mxGeometry relative="1" as="geometry" />
        </mxCell>
        <mxCell id="xh9UEQg4_IJuGhr8X1SV-18" value="1234" style="rounded=0;whiteSpace=wrap;html=1;" vertex="1" parent="1">
          <mxGeometry x="205" y="460" width="105" height="30" as="geometry" />
        </mxCell>
        <mxCell id="xh9UEQg4_IJuGhr8X1SV-21" style="edgeStyle=orthogonalEdgeStyle;rounded=0;orthogonalLoop=1;jettySize=auto;html=1;exitX=0.5;exitY=1;exitDx=0;exitDy=0;entryX=0.5;entryY=0;entryDx=0;entryDy=0;" edge="1" parent="1" source="xh9UEQg4_IJuGhr8X1SV-19" target="xh9UEQg4_IJuGhr8X1SV-3">
          <mxGeometry relative="1" as="geometry" />
        </mxCell>
        <mxCell id="xh9UEQg4_IJuGhr8X1SV-19" value="1234" style="rounded=0;whiteSpace=wrap;html=1;" vertex="1" parent="1">
          <mxGeometry x="410" y="460" width="105" height="30" as="geometry" />
        </mxCell>
        <mxCell id="xh9UEQg4_IJuGhr8X1SV-22" value="密钥" style="text;html=1;strokeColor=none;fillColor=none;align=center;verticalAlign=middle;whiteSpace=wrap;rounded=0;" vertex="1" parent="1">
          <mxGeometry x="237.5" y="430" width="40" height="20" as="geometry" />
        </mxCell>
        <mxCell id="xh9UEQg4_IJuGhr8X1SV-23" value="密钥" style="text;html=1;strokeColor=none;fillColor=none;align=center;verticalAlign=middle;whiteSpace=wrap;rounded=0;" vertex="1" parent="1">
          <mxGeometry x="445" y="430" width="40" height="20" as="geometry" />
        </mxCell>
      </root>
    </mxGraphModel>
  </diagram>
</mxfile>
